<?xml version="1.0" standalone="no"?>
<!DOCTYPE svg PUBLIC "-//W3C//DTD SVG 20010904//EN"
 "http://www.w3.org/TR/2001/REC-SVG-20010904/DTD/svg10.dtd">
<svg version="1.0" xmlns="http://www.w3.org/2000/svg"
 width="512.000000pt" height="512.000000pt" viewBox="0 0 512.000000 512.000000"
 preserveAspectRatio="xMidYMid meet">

<g transform="translate(0.000000,512.000000) scale(0.100000,-0.100000)"
fill="#000000" stroke="none">
<path d="M2356 5109 c-515 -40 -1020 -264 -1311 -581 -210 -231 -307 -457
-322 -755 l-6 -123 -61 6 c-256 26 -514 -177 -570 -449 -20 -95 -20 -166 -1
-283 25 -156 64 -265 193 -539 179 -382 192 -459 201 -1205 6 -486 7 -528 25
-560 41 -77 95 -116 185 -135 l54 -11 59 -174 c32 -96 70 -189 84 -207 13 -18
46 -45 72 -60 45 -27 53 -28 174 -28 138 0 155 6 202 69 19 25 21 44 24 217
l3 189 1199 0 1199 0 3 -189 c3 -173 5 -192 24 -217 47 -63 64 -69 202 -69
121 0 129 1 174 28 26 15 59 42 72 60 14 18 52 111 84 207 l59 174 54 11 c90
19 144 58 185 135 18 32 19 74 25 560 9 746 22 823 201 1205 129 274 168 383
193 539 27 168 13 292 -48 421 -42 86 -106 158 -194 219 -101 69 -168 89 -289
90 l-101 1 -6 120 c-12 240 -67 403 -198 595 -285 417 -828 693 -1459 740
-151 11 -226 11 -384 -1z m395 -160 c460 -36 858 -198 1137 -464 154 -146 260
-311 311 -480 25 -83 41 -216 41 -336 l0 -87 -48 -31 c-27 -17 -76 -59 -109
-94 -223 -234 -357 -614 -399 -1135 l-6 -82 -1118 0 -1118 0 -7 78 c-26 320
-79 566 -171 782 -79 189 -218 376 -336 451 l-48 31 0 87 c0 120 16 253 41
336 89 298 354 580 704 750 326 158 720 226 1126 194z m-2043 -1467 c274 -86
483 -474 547 -1018 21 -181 20 -241 -4 -249 -30 -9 -92 -75 -112 -119 -17 -37
-19 -70 -19 -336 0 -264 2 -299 19 -335 23 -52 74 -103 126 -126 38 -18 101
-19 1295 -19 1194 0 1257 1 1295 19 52 23 103 74 126 126 17 36 19 71 19 335
0 266 -2 299 -19 336 -20 44 -82 110 -112 119 -24 8 -25 68 -4 249 30 252 84
453 171 631 89 184 196 303 331 370 49 24 71 29 138 29 67 1 90 -3 138 -26 78
-37 160 -117 198 -194 84 -171 53 -390 -103 -727 -235 -507 -258 -629 -258
-1353 0 -359 -1 -374 -19 -384 -27 -14 -3775 -14 -3802 0 -18 10 -19 25 -19
384 0 724 -23 846 -258 1353 -186 401 -197 651 -36 824 107 114 230 151 362
111z m3085 -1413 c42 -19 47 -47 47 -254 0 -182 -1 -195 -19 -205 -27 -14
-2495 -14 -2522 0 -18 10 -19 23 -19 205 0 203 5 235 44 253 31 15 2436 16
2469 1z"/>
</g>
</svg>
